<?xml version="1.0" encoding="utf-8"?>
<!-- Generator: Adobe Illustrator 22.0.0, SVG Export Plug-In . SVG Version: 6.00 Build 0)  -->
<svg version="1.1" id="Layer_1" xmlns="http://www.w3.org/2000/svg" xmlns:xlink="http://www.w3.org/1999/xlink" x="0px" y="0px"
	 viewBox="0 0 289.7 45.5" style="enable-background:new 0 0 289.7 45.5;" xml:space="preserve">
<style type="text/css">
	.st0{fill:#2872F0;}
	.st1{fill:#FFFFFF;}
</style>
<title>Asset 6</title>
<g id="Layer_2-2">
	<path class="st0" d="M23,35.8h-5.9L5.8,13.5v22.3H0V1.9h5.8l11.3,22.4V1.9H23V35.8z"/>
	<path class="st0" d="M44,28.8H33.8l-1.9,7h-6.2L36.1,1.9h5.4l10.6,33.9h-6.2L44,28.8z M35.4,23.1h7l-3.5-12.7L35.4,23.1z"/>
	<path class="st0" d="M68.8,26.9c0.1-1.1-0.4-2.2-1.2-3c-1.3-1-2.7-1.7-4.2-2.2c-1.7-0.6-3.3-1.4-4.8-2.3c-3-1.7-4.8-4.9-4.8-8.4
		c0-1.7,0.4-3.4,1.3-4.9c0.9-1.5,2.2-2.6,3.7-3.4c1.7-0.8,3.5-1.3,5.4-1.2c1.9,0,3.7,0.4,5.4,1.3c1.6,0.9,2.8,2.1,3.7,3.7
		c0.9,1.7,1.3,3.6,1.3,5.5h-5.8c0.1-1.3-0.3-2.6-1.2-3.6c-0.9-0.9-2.2-1.3-3.4-1.3c-1.2-0.1-2.4,0.3-3.3,1.1
		c-0.8,0.7-1.2,1.8-1.2,2.9c0,1.1,0.5,2.1,1.4,2.7c1.2,0.9,2.6,1.6,4.1,2.1c2.7,0.8,5.2,2.4,7.2,4.4c1.5,1.9,2.3,4.2,2.3,6.6
		c0.1,2.6-0.9,5.1-2.8,6.9c-2.1,1.8-4.8,2.7-7.5,2.5c-2.1,0-4.1-0.5-5.9-1.4c-1.7-0.9-3.1-2.2-4.1-3.9c-1-1.8-1.4-3.8-1.4-5.8h5.8
		c0,3.8,1.9,5.6,5.6,5.6c1.2,0.1,2.3-0.3,3.2-1C68.4,29,68.8,28,68.8,26.9z"/>
	<path class="st0" d="M94,28.8H83.8l-1.9,7h-6.2L86.2,1.9h5.4l10.6,33.9H96L94,28.8z M85.4,23.1h7.1l-3.6-12.7L85.4,23.1z"/>
	<path class="st1" d="M118.9,42.1h-3.4V1.9h3.4V42.1z"/>
	<path class="st1" d="M150.6,28.8h-10.2l-1.9,7h-6.2l10.5-33.9h5.4l10.6,33.9h-6.2L150.6,28.8z M141.9,23.1h7.1l-3.6-12.7
		L141.9,23.1z"/>
	<path class="st1" d="M179.9,23.4c0,3.9-0.7,7-2.2,9.3c-1.2,2.2-3.5,3.5-5.9,3.5c-2.1,0-4-1-5.1-2.7v11.9H161V10.6h5.2l0.2,2.5
		c1.1-1.8,3.2-2.9,5.3-2.9c2.5,0,4.8,1.3,6,3.4c1.4,2.3,2.1,5.5,2.1,9.5L179.9,23.4z M174.3,22.9c0.1-1.9-0.2-3.7-1-5.4
		c-0.5-1.2-1.7-1.9-3-1.9c-1.6-0.1-3.1,0.9-3.7,2.4v10.3c0.5,1.6,2,2.6,3.7,2.5C172.9,30.8,174.3,28.2,174.3,22.9L174.3,22.9z"/>
	<path class="st1" d="M182.2,23c0-2.3,0.4-4.6,1.2-6.7c0.7-1.8,1.9-3.4,3.5-4.6c1.5-1.1,3.4-1.6,5.2-1.6c2.7-0.1,5.2,1.1,6.9,3.1
		c1.9,2.4,3,5.4,3,8.5v1.7c0,3.9-0.9,7-2.7,9.3c-3.2,4-9,4.7-13,1.5c-0.6-0.4-1.1-1-1.5-1.5c-1.8-2.3-2.7-5.5-2.7-9.5L182.2,23z
		 M187.8,23.5c-0.1,1.9,0.3,3.8,1.2,5.5c1,1.8,3.2,2.4,4.9,1.5c0.6-0.3,1.1-0.8,1.5-1.5c0.8-1.3,1.2-3.3,1.1-6
		c0.1-1.9-0.3-3.8-1.1-5.5c-0.6-1.2-1.9-1.9-3.2-1.9c-1.3,0-2.6,0.7-3.2,1.9C188.1,19.3,187.7,21.4,187.8,23.5L187.8,23.5z"/>
	<path class="st1" d="M211.1,35.8h-5.6V0h5.6V35.8z"/>
	<path class="st1" d="M221.1,35.8h-5.6V0h5.6V35.8z"/>
	<path class="st1" d="M224.4,23c0-2.3,0.4-4.6,1.2-6.7c0.7-1.8,1.9-3.4,3.5-4.6c1.5-1.1,3.4-1.6,5.2-1.6c2.7-0.1,5.2,1.1,6.9,3.1
		c1.9,2.4,3,5.4,3,8.5v1.7c0,3.9-0.9,7-2.7,9.3c-3.2,4-9,4.7-13,1.5c-0.6-0.4-1.1-1-1.5-1.5c-1.8-2.3-2.7-5.5-2.7-9.5L224.4,23z
		 M230,23.5c-0.1,1.9,0.3,3.8,1.1,5.5c1,1.8,3.2,2.4,5,1.4c0.6-0.3,1.1-0.8,1.4-1.4c0.8-1.3,1.1-3.3,1.1-6c0.1-1.9-0.3-3.8-1.1-5.5
		c-0.6-1.2-1.9-1.9-3.2-1.9c-1.3,0-2.6,0.7-3.2,1.9C230.3,19.3,229.9,21.4,230,23.5L230,23.5z"/>
	<path class="st1" d="M271,35.8h-5.6v-26l-6.7,2.5V6.8l11.7-5h0.6V35.8z"/>
	<path class="st1" d="M289.7,35.8h-5.6v-26l-6.7,2.5V6.8l11.7-5h0.6V35.8z"/>
</g>
</svg>
