<svg xmlns="http://www.w3.org/2000/svg" viewBox="0 0 289.69 45.5"><defs><style>.cls-1{fill:#fc3d21;}.cls-2{fill:#fff;}</style></defs><title>Asset 6</title><g id="Layer_2" data-name="Layer 2"><g id="Layer_2-2" data-name="Layer 2"><path class="cls-1" d="M23,35.8H17.14L5.82,13.47V35.8H0V1.86H5.82L17.16,24.24V1.86H23Z"/><path class="cls-1" d="M44,28.81H33.76l-1.94,7H25.63L36.14,1.86h5.39L52.09,35.8H45.91Zm-8.62-5.67h7.05l-3.55-12.7Z"/><path class="cls-1" d="M68.75,26.9a3.91,3.91,0,0,0-1.16-3,14.17,14.17,0,0,0-4.19-2.23,27.43,27.43,0,0,1-4.78-2.32,9.59,9.59,0,0,1-4.81-8.42A9.36,9.36,0,0,1,55.1,6a8.78,8.78,0,0,1,3.7-3.37A11.87,11.87,0,0,1,64.22,1.4a10.9,10.9,0,0,1,5.39,1.32,9.17,9.17,0,0,1,3.67,3.71,11.25,11.25,0,0,1,1.31,5.46H68.77a5,5,0,0,0-1.22-3.63A4.49,4.49,0,0,0,64.12,7a4.71,4.71,0,0,0-3.31,1.08,3.7,3.7,0,0,0-1.19,2.86A3.44,3.44,0,0,0,61,13.68a14.16,14.16,0,0,0,4.08,2.1,16.89,16.89,0,0,1,7.23,4.45,9.85,9.85,0,0,1,2.27,6.62,8.86,8.86,0,0,1-2.77,6.91,10.73,10.73,0,0,1-7.47,2.51,12.33,12.33,0,0,1-5.93-1.44,10,10,0,0,1-4.08-3.92,11.57,11.57,0,0,1-1.4-5.79h5.83q0,5.63,5.58,5.62a4.78,4.78,0,0,0,3.24-1A3.55,3.55,0,0,0,68.75,26.9Z"/><path class="cls-1" d="M94,28.81H83.84l-1.94,7H75.72L86.23,1.86h5.38L102.18,35.8H96Zm-8.63-5.67h7.06l-3.55-12.7Z"/><path class="cls-2" d="M118.93,42.09h-3.4V1.86h3.4Z"/><path class="cls-2" d="M150.56,28.81H140.37l-1.94,7h-6.19L142.75,1.86h5.39L158.7,35.8h-6.18Zm-8.62-5.67H149l-3.55-12.7Z"/><path class="cls-2" d="M179.87,23.42q0,5.83-2.2,9.34a6.72,6.72,0,0,1-5.94,3.51,6.11,6.11,0,0,1-5.14-2.66V45.5H161V10.58h5.2l.19,2.47a6.2,6.2,0,0,1,5.31-2.93,6.75,6.75,0,0,1,6,3.44q2.15,3.45,2.15,9.51Zm-5.6-.49a11.61,11.61,0,0,0-1-5.43,3.27,3.27,0,0,0-3-1.91A3.62,3.62,0,0,0,166.59,18V28.34a3.7,3.7,0,0,0,3.67,2.5Q174.27,30.84,174.27,22.93Z"/><path class="cls-2" d="M182.23,23a17.58,17.58,0,0,1,1.2-6.69,10.19,10.19,0,0,1,3.46-4.55,8.85,8.85,0,0,1,5.25-1.6,8.72,8.72,0,0,1,6.93,3.12,13.88,13.88,0,0,1,3,8.48l0,1.73q0,5.81-2.69,9.31a9.22,9.22,0,0,1-14.47,0q-2.72-3.5-2.71-9.51Zm5.6.48A10.89,10.89,0,0,0,189,28.93a3.64,3.64,0,0,0,6.39,0q1.16-1.89,1.15-6a10.76,10.76,0,0,0-1.15-5.47,3.55,3.55,0,0,0-3.21-1.93A3.51,3.51,0,0,0,189,17.47,12.22,12.22,0,0,0,187.83,23.44Z"/><path class="cls-2" d="M211.06,35.8h-5.62V0h5.62Z"/><path class="cls-2" d="M221.07,35.8h-5.62V0h5.62Z"/><path class="cls-2" d="M224.41,23a17.58,17.58,0,0,1,1.2-6.69,10.26,10.26,0,0,1,3.46-4.55,8.85,8.85,0,0,1,5.25-1.6,8.72,8.72,0,0,1,6.93,3.12,13.81,13.81,0,0,1,3,8.48l0,1.73q0,5.81-2.69,9.31a9.22,9.22,0,0,1-14.47,0q-2.72-3.5-2.71-9.51Zm5.6.48a10.89,10.89,0,0,0,1.13,5.49,3.65,3.65,0,0,0,6.4,0q1.14-1.89,1.14-6a10.87,10.87,0,0,0-1.14-5.47,3.57,3.57,0,0,0-3.22-1.93,3.51,3.51,0,0,0-3.18,1.92A12.22,12.22,0,0,0,230,23.44Z"/><path class="cls-2" d="M271,35.8h-5.6v-26l-6.69,2.49V6.85l11.69-5h.6Z"/><path class="cls-2" d="M289.69,35.8h-5.6v-26l-6.69,2.49V6.85l11.69-5h.6Z"/></g></g></svg>